<?xml version="1.0" standalone="no"?>
<!DOCTYPE svg PUBLIC "-//W3C//DTD SVG 20010904//EN"
 "http://www.w3.org/TR/2001/REC-SVG-20010904/DTD/svg10.dtd">
<svg version="1.0" xmlns="http://www.w3.org/2000/svg"
 width="450.000000pt" height="450.000000pt" viewBox="0 0 450.000000 450.000000"
 preserveAspectRatio="xMidYMid meet">
<metadata>
Created by potrace 1.11, written by Peter Selinger 2001-2013
</metadata>
<g transform="translate(0.000000,450.000000) scale(0.100000,-0.100000)"
fill="#000000" stroke="none">
<path d="M1070 3350 c-536 -604 -974 -1101 -974 -1105 1 -4 441 -502 978
-1106 l977 -1099 692 0 692 1 488 550 c431 485 487 552 475 567 -7 9 -226 256
-486 549 -261 293 -472 537 -470 542 2 5 212 244 468 531 256 287 473 533 483
546 l18 24 -488 550 -488 549 -695 0 -695 0 -975 -1099z m1858 111 l100 -113
-489 -551 c-488 -548 -490 -550 -471 -571 11 -12 218 -246 462 -521 244 -275
456 -513 471 -530 l28 -30 -140 -157 c-77 -87 -144 -158 -148 -158 -6 0 -1221
1361 -1249 1400 -12 17 42 81 579 687 325 367 610 687 632 710 l40 42 42 -47
c23 -26 87 -98 143 -161z"/>
</g>
</svg>
